# xmcd
#
# Track frame offsets: 
#        150
#        10522
#        22122
#        41295
#        55405
#        67595
#        79950
#        97050
#        113337
#        132500
#        142325
#
# Disc length: 2159 seconds
#
# Revision: 2
# Processed by: cddbd v1.5.2PL0 Copyright (c) Steve Scherf et al.
# Submitted via: ExactAudioCopy v0.99pb4
#
DISCID=8e086d0b
DTITLE=Monte Warden - Monte Warden
DYEAR=1993
DGENRE=Pop
TTITLE0=Don't Know A Thing
TTITLE1=Forever From Now On
TTITLE2='Til She Walked In
TTITLE3=Give My Heart A Break
TTITLE4=The Only One
TTITLE5=It's Amazing
TTITLE6=Feel Better
TTITLE7=Everyday We Fall In Love
TTITLE8=Just To Hear Your Voice
TTITLE9=All I Want Is You
TTITLE10=Car Seat
EXTD=
EXTT0=
EXTT1=
EXTT2=
EXTT3=
EXTT4=
EXTT5=
EXTT6=
EXTT7=
EXTT8=
EXTT9=
EXTT10=
PLAYORDER=
